<svg width="30" height="30" viewBox="0 0 30 30" fill="none" xmlns="http://www.w3.org/2000/svg">
<path fill-rule="evenodd" clip-rule="evenodd" d="M6 0C2.68629 0 0 2.68628 0 6V24C0 27.3137 2.68629 30 6 30H24C27.3137 30 30 27.3137 30 24V6C30 2.68628 27.3137 0 24 0H6ZM17.8284 8.17163C17.0783 7.42139 16.0609 7 15 7C13.9391 7 12.9217 7.42139 12.1716 8.17163C11.4214 8.92175 11 9.93909 11 11C11 12.0609 11.4214 13.0782 12.1716 13.8284C12.9217 14.5786 13.9391 15 15 15C16.0609 15 17.0783 14.5786 17.8284 13.8284C18.5786 13.0782 19 12.0609 19 11C19 9.93909 18.5786 8.92175 17.8284 8.17163ZM23 21C23 18.79 19.42 17 15 17C10.58 17 7 18.79 7 21V23H23V21Z" fill="#F7F7F7"/>
</svg>
