<svg width="30" height="30" viewBox="0 0 30 30" fill="none" xmlns="http://www.w3.org/2000/svg">
<path fill-rule="evenodd" clip-rule="evenodd" d="M6 0C2.68629 0 0 2.68629 0 6V24C0 27.3137 2.68629 30 6 30H24C27.3137 30 30 27.3137 30 24V6C30 2.68629 27.3137 0 24 0H6ZM3 14C3 8.475 8.625 4 15.5 4C22.375 4 28 8.475 28 14C28 19.525 22.375 24 15.5 24C14.0125 24 12.5125 23.7875 11.0875 23.375C8.8 25.25 5.9625 26.3625 3 26.5C5.9125 23.5875 6.4375 21.625 6.4375 20.875C5.39377 20.0528 4.54447 19.0102 3.95025 17.8218C3.35603 16.6333 3.03156 15.3283 3 14ZM5.5 14C5.5 18.1375 9.975 21.5 15.5 21.5C21.025 21.5 25.5 18.1375 25.5 14C25.5 9.8625 21.025 6.5 15.5 6.5C9.975 6.5 5.5 9.8625 5.5 14Z" fill="#F7F7F7"/>
</svg>
